<svg width="144" height="144" viewBox="0 0 144 144" xmlns="http://www.w3.org/2000/svg">
  <defs>
    <linearGradient id="vaultGradient" x1="0%" y1="0%" x2="100%" y2="100%">
      <stop offset="0%" style="stop-color:#000000;stop-opacity:1" />
      <stop offset="50%" style="stop-color:#1a1a1a;stop-opacity:1" />
      <stop offset="100%" style="stop-color:#000000;stop-opacity:1" />
    </linearGradient>
  </defs>
  
  <!-- Background -->
  <rect width="144" height="144" fill="url(#vaultGradient)" rx="14.4"/>
  
  <!-- Vault door circle -->
  <circle cx="72" cy="72" r="52" fill="none" stroke="white" stroke-width="3" opacity="0.8"/>
  <circle cx="72" cy="72" r="41" fill="none" stroke="white" stroke-width="2" opacity="0.6"/>
  
  <!-- Vault handle/dial -->
  <circle cx="72" cy="72" r="19" fill="none" stroke="white" stroke-width="3"/>
  <circle cx="72" cy="72" r="11" fill="white" opacity="0.9"/>
  
  <!-- Dial indicators -->
  <circle cx="72" cy="53" r="2" fill="white"/>
  <circle cx="91" cy="72" r="2" fill="white"/>
  <circle cx="72" cy="91" r="2" fill="white"/>
  <circle cx="53" cy="72" r="2" fill="white"/>
  
  <!-- Lock mechanism lines -->
  <line x1="72" y1="72" x2="72" y2="61" stroke="white" stroke-width="2" stroke-linecap="round"/>
  
  <!-- Security bolts -->
  <circle cx="30" cy="52" r="3" fill="white" opacity="0.7"/>
  <circle cx="30" cy="92" r="3" fill="white" opacity="0.7"/>
  <circle cx="114" cy="52" r="3" fill="white" opacity="0.7"/>
  <circle cx="114" cy="92" r="3" fill="white" opacity="0.7"/>
  
  <!-- Brand text -->
  <text x="72" y="120" font-family="Arial, sans-serif" font-size="18" font-weight="bold" fill="white" text-anchor="middle">VAULT</text>
</svg>="144" height="144" viewBox="0 0 144 144" xmlns="http://www.w3.org/2000/svg">
  <defs>
    <linearGradient id="gradient" x1="0%" y1="0%" x2="100%" y2="100%">
      <stop offset="0%" style="stop-color:#667eea;stop-opacity:1" />
      <stop offset="100%" style="stop-color:#764ba2;stop-opacity:1" />
    </linearGradient>
  </defs>
  <rect width="144" height="144" fill="url(#gradient)" rx="14.4"/>
  <text x="50%" y="50%" font-family="Arial, sans-serif" font-size="43.199999999999996" fill="white" text-anchor="middle" dominant-baseline="central">LS</text>
</svg>