<svg width="152" height="152" viewBox="0 0 152 152" xmlns="http://www.w3.org/2000/svg">
  <defs>
    <linearGradient id="vaultGradient" x1="0%" y1="0%" x2="100%" y2="100%">
      <stop offset="0%" style="stop-color:#000000;stop-opacity:1" />
      <stop offset="50%" style="stop-color:#1a1a1a;stop-opacity:1" />
      <stop offset="100%" style="stop-color:#000000;stop-opacity:1" />
    </linearGradient>
  </defs>
  
  <!-- Background -->
  <rect width="152" height="152" fill="url(#vaultGradient)" rx="15.2"/>
  
  <!-- Vault door circle -->
  <circle cx="76" cy="76" r="55" fill="none" stroke="white" stroke-width="3" opacity="0.8"/>
  <circle cx="76" cy="76" r="43" fill="none" stroke="white" stroke-width="2" opacity="0.6"/>
  
  <!-- Vault handle/dial -->
  <circle cx="76" cy="76" r="20" fill="none" stroke="white" stroke-width="3"/>
  <circle cx="76" cy="76" r="12" fill="white" opacity="0.9"/>
  
  <!-- Dial indicators -->
  <circle cx="76" cy="56" r="2" fill="white"/>
  <circle cx="96" cy="76" r="2" fill="white"/>
  <circle cx="76" cy="96" r="2" fill="white"/>
  <circle cx="56" cy="76" r="2" fill="white"/>
  
  <!-- Lock mechanism lines -->
  <line x1="76" y1="76" x2="76" y2="64" stroke="white" stroke-width="2" stroke-linecap="round"/>
  
  <!-- Security bolts -->
  <circle cx="32" cy="55" r="3" fill="white" opacity="0.7"/>
  <circle cx="32" cy="97" r="3" fill="white" opacity="0.7"/>
  <circle cx="120" cy="55" r="3" fill="white" opacity="0.7"/>
  <circle cx="120" cy="97" r="3" fill="white" opacity="0.7"/>
  
  <!-- Brand text -->
  <text x="76" y="127" font-family="Arial, sans-serif" font-size="19" font-weight="bold" fill="white" text-anchor="middle">VAULT</text>
</svg>="152" height="152" viewBox="0 0 152 152" xmlns="http://www.w3.org/2000/svg">
  <defs>
    <linearGradient id="gradient" x1="0%" y1="0%" x2="100%" y2="100%">
      <stop offset="0%" style="stop-color:#667eea;stop-opacity:1" />
      <stop offset="100%" style="stop-color:#764ba2;stop-opacity:1" />
    </linearGradient>
  </defs>
  <rect width="152" height="152" fill="url(#gradient)" rx="15.200000000000001"/>
  <text x="50%" y="50%" font-family="Arial, sans-serif" font-size="45.6" fill="white" text-anchor="middle" dominant-baseline="central">LS</text>
</svg>