<svg width="72" height="72" viewBox="0 0 72 72" xmlns="http://www.w3.org/2000/svg">
  <defs>
    <linearGradient id="vaultGradient" x1="0%" y1="0%" x2="100%" y2="100%">
      <stop offset="0%" style="stop-color:#000000;stop-opacity:1" />
      <stop offset="50%" style="stop-color:#1a1a1a;stop-opacity:1" />
      <stop offset="100%" style="stop-color:#000000;stop-opacity:1" />
    </linearGradient>
  </defs>
  
  <!-- Background -->
  <rect width="72" height="72" fill="url(#vaultGradient)" rx="7.2"/>
  
  <!-- Vault door circle -->
  <circle cx="36" cy="36" r="26" fill="none" stroke="white" stroke-width="1.5" opacity="0.8"/>
  <circle cx="36" cy="36" r="20" fill="none" stroke="white" stroke-width="1" opacity="0.6"/>
  
  <!-- Vault handle/dial -->
  <circle cx="36" cy="36" r="9" fill="none" stroke="white" stroke-width="1.5"/>
  <circle cx="36" cy="36" r="5" fill="white" opacity="0.9"/>
  
  <!-- Dial indicators -->
  <circle cx="36" cy="27" r="1" fill="white"/>
  <circle cx="45" cy="36" r="1" fill="white"/>
  <circle cx="36" cy="45" r="1" fill="white"/>
  <circle cx="27" cy="36" r="1" fill="white"/>
  
  <!-- Lock mechanism lines -->
  <line x1="36" y1="36" x2="36" y2="31" stroke="white" stroke-width="1" stroke-linecap="round"/>
  
  <!-- Security bolts -->
  <circle cx="15" cy="26" r="1.5" fill="white" opacity="0.7"/>
  <circle cx="15" cy="46" r="1.5" fill="white" opacity="0.7"/>
  <circle cx="57" cy="26" r="1.5" fill="white" opacity="0.7"/>
  <circle cx="57" cy="46" r="1.5" fill="white" opacity="0.7"/>
  
  <!-- Brand text -->
  <text x="36" y="60" font-family="Arial, sans-serif" font-size="9" font-weight="bold" fill="white" text-anchor="middle">VAULT</text>
</svg>="72" height="72" viewBox="0 0 72 72" xmlns="http://www.w3.org/2000/svg">
  <defs>
    <linearGradient id="gradient" x1="0%" y1="0%" x2="100%" y2="100%">
      <stop offset="0%" style="stop-color:#667eea;stop-opacity:1" />
      <stop offset="100%" style="stop-color:#764ba2;stop-opacity:1" />
    </linearGradient>
  </defs>
  <rect width="72" height="72" fill="url(#gradient)" rx="7.2"/>
  <text x="50%" y="50%" font-family="Arial, sans-serif" font-size="21.599999999999998" fill="white" text-anchor="middle" dominant-baseline="central">LS</text>
</svg>