<svg width="96" height="96" viewBox="0 0 96 96" xmlns="http://www.w3.org/2000/svg">
  <defs>
    <linearGradient id="vaultGradient" x1="0%" y1="0%" x2="100%" y2="100%">
      <stop offset="0%" style="stop-color:#000000;stop-opacity:1" />
      <stop offset="50%" style="stop-color:#1a1a1a;stop-opacity:1" />
      <stop offset="100%" style="stop-color:#000000;stop-opacity:1" />
    </linearGradient>
  </defs>
  
  <!-- Background -->
  <rect width="96" height="96" fill="url(#vaultGradient)" rx="9.6"/>
  
  <!-- Vault door circle -->
  <circle cx="48" cy="48" r="35" fill="none" stroke="white" stroke-width="2" opacity="0.8"/>
  <circle cx="48" cy="48" r="27" fill="none" stroke="white" stroke-width="1.5" opacity="0.6"/>
  
  <!-- Vault handle/dial -->
  <circle cx="48" cy="48" r="12" fill="none" stroke="white" stroke-width="2"/>
  <circle cx="48" cy="48" r="7" fill="white" opacity="0.9"/>
  
  <!-- Dial indicators -->
  <circle cx="48" cy="36" r="1.5" fill="white"/>
  <circle cx="60" cy="48" r="1.5" fill="white"/>
  <circle cx="48" cy="60" r="1.5" fill="white"/>
  <circle cx="36" cy="48" r="1.5" fill="white"/>
  
  <!-- Lock mechanism lines -->
  <line x1="48" y1="48" x2="48" y2="41" stroke="white" stroke-width="1.5" stroke-linecap="round"/>
  
  <!-- Security bolts -->
  <circle cx="20" cy="35" r="2" fill="white" opacity="0.7"/>
  <circle cx="20" cy="61" r="2" fill="white" opacity="0.7"/>
  <circle cx="76" cy="35" r="2" fill="white" opacity="0.7"/>
  <circle cx="76" cy="61" r="2" fill="white" opacity="0.7"/>
  
  <!-- Brand text -->
  <text x="48" y="80" font-family="Arial, sans-serif" font-size="12" font-weight="bold" fill="white" text-anchor="middle">VAULT</text>
</svg>="96" height="96" viewBox="0 0 96 96" xmlns="http://www.w3.org/2000/svg">
  <defs>
    <linearGradient id="gradient" x1="0%" y1="0%" x2="100%" y2="100%">
      <stop offset="0%" style="stop-color:#667eea;stop-opacity:1" />
      <stop offset="100%" style="stop-color:#764ba2;stop-opacity:1" />
    </linearGradient>
  </defs>
  <rect width="96" height="96" fill="url(#gradient)" rx="9.600000000000001"/>
  <text x="50%" y="50%" font-family="Arial, sans-serif" font-size="28.799999999999997" fill="white" text-anchor="middle" dominant-baseline="central">LS</text>
</svg>