<svg width="384" height="384" viewBox="0 0 384 384" xmlns="http://www.w3.org/2000/svg">
  <defs>
    <linearGradient id="vaultGradient" x1="0%" y1="0%" x2="100%" y2="100%">
      <stop offset="0%" style="stop-color:#000000;stop-opacity:1" />
      <stop offset="50%" style="stop-color:#1a1a1a;stop-opacity:1" />
      <stop offset="100%" style="stop-color:#000000;stop-opacity:1" />
    </linearGradient>
    <filter id="glow">
      <feGaussianBlur stdDeviation="6" result="coloredBlur"/>
      <feMerge> 
        <feMergeNode in="coloredBlur"/>
        <feMergeNode in="SourceGraphic"/>
      </feMerge>
    </filter>
  </defs>
  
  <!-- Background -->
  <rect width="384" height="384" fill="url(#vaultGradient)" rx="38.4"/>
  
  <!-- Vault door circles -->
  <circle cx="192" cy="192" r="140" fill="none" stroke="white" stroke-width="6" opacity="0.8"/>
  <circle cx="192" cy="192" r="110" fill="none" stroke="white" stroke-width="4" opacity="0.6"/>
  <circle cx="192" cy="192" r="80" fill="none" stroke="white" stroke-width="3" opacity="0.4"/>
  
  <!-- Vault handle/dial -->
  <circle cx="192" cy="192" r="52" fill="none" stroke="white" stroke-width="6"/>
  <circle cx="192" cy="192" r="33" fill="white" opacity="0.9"/>
  
  <!-- Dial indicators -->
  <circle cx="192" cy="140" r="4" fill="white"/>
  <circle cx="244" cy="192" r="4" fill="white"/>
  <circle cx="192" cy="244" r="4" fill="white"/>
  <circle cx="140" cy="192" r="4" fill="white"/>
  
  <!-- Additional dial marks -->
  <circle cx="228" cy="156" r="3" fill="white" opacity="0.7"/>
  <circle cx="228" cy="228" r="3" fill="white" opacity="0.7"/>
  <circle cx="156" cy="228" r="3" fill="white" opacity="0.7"/>
  <circle cx="156" cy="156" r="3" fill="white" opacity="0.7"/>
  
  <!-- Lock mechanism lines -->
  <line x1="192" y1="192" x2="192" y2="159" stroke="white" stroke-width="4" stroke-linecap="round"/>
  <line x1="192" y1="192" x2="207" y2="177" stroke="white" stroke-width="3" stroke-linecap="round"/>
  
  <!-- Security bolts -->
  <circle cx="75" cy="135" r="8" fill="white" opacity="0.7"/>
  <circle cx="75" cy="249" r="8" fill="white" opacity="0.7"/>
  <circle cx="309" cy="135" r="8" fill="white" opacity="0.7"/>
  <circle cx="309" cy="249" r="8" fill="white" opacity="0.7"/>
  
  <!-- Corner reinforcements -->
  <rect x="60" y="120" width="30" height="6" rx="3" fill="white" opacity="0.5"/>
  <rect x="60" y="258" width="30" height="6" rx="3" fill="white" opacity="0.5"/>
  <rect x="294" y="120" width="30" height="6" rx="3" fill="white" opacity="0.5"/>
  <rect x="294" y="258" width="30" height="6" rx="3" fill="white" opacity="0.5"/>
  
  <!-- Brand text -->
  <text x="192" y="322" font-family="Arial, sans-serif" font-size="48" font-weight="bold" fill="white" text-anchor="middle" filter="url(#glow)">VAULT</text>
</svg>="384" height="384" viewBox="0 0 384 384" xmlns="http://www.w3.org/2000/svg">
  <defs>
    <linearGradient id="gradient" x1="0%" y1="0%" x2="100%" y2="100%">
      <stop offset="0%" style="stop-color:#667eea;stop-opacity:1" />
      <stop offset="100%" style="stop-color:#764ba2;stop-opacity:1" />
    </linearGradient>
  </defs>
  <rect width="384" height="384" fill="url(#gradient)" rx="38.400000000000006"/>
  <text x="50%" y="50%" font-family="Arial, sans-serif" font-size="115.19999999999999" fill="white" text-anchor="middle" dominant-baseline="central">LS</text>
</svg>